<?xml version="1.0" standalone="no"?>
<!DOCTYPE svg PUBLIC "-//W3C//DTD SVG 20010904//EN"
 "http://www.w3.org/TR/2001/REC-SVG-20010904/DTD/svg10.dtd">
<svg version="1.0" xmlns="http://www.w3.org/2000/svg"
 width="800.000000pt" height="800.000000pt" viewBox="0 0 800.000000 800.000000"
 preserveAspectRatio="xMidYMid meet">
<metadata>
Created by potrace 1.14, written by Peter Selinger 2001-2017
</metadata>
<g transform="translate(0.000000,800.000000) scale(0.100000,-0.100000)"
fill="#000000" stroke="none">
<path d="M0 4000 l0 -4000 4000 0 4000 0 0 4000 0 4000 -4000 0 -4000 0 0
-4000z m4357 3332 c95 -110 122 -147 148 -197 29 -58 55 -71 74 -37 8 13 10
14 11 2 0 -8 11 -24 25 -34 14 -10 25 -23 25 -29 0 -6 -4 -6 -12 0 -7 6 -33
13 -58 16 -25 3 -56 9 -70 12 -19 5 -22 4 -10 -4 12 -8 4 -11 -32 -11 -92 0
-119 -60 -45 -98 165 -85 283 -185 404 -343 43 -56 123 -203 123 -226 0 -18
17 -16 24 3 3 9 6 30 7 47 0 26 5 19 25 -38 14 -38 29 -79 34 -90 5 -11 21
-49 36 -85 28 -68 74 -157 105 -202 18 -25 25 -48 14 -48 -3 0 -29 14 -59 30
-78 44 -189 79 -292 92 -86 10 -184 5 -184 -10 0 -4 33 -22 74 -40 74 -33 187
-123 174 -137 -4 -4 -13 -3 -20 2 -32 25 -173 95 -244 121 -283 104 -627 61
-875 -108 -32 -22 -63 -40 -69 -40 -56 0 150 163 233 184 15 3 27 11 27 18 0
7 -37 9 -127 5 -101 -4 -143 -10 -198 -30 -79 -27 -170 -72 -180 -87 -8 -12
-45 -13 -45 -1 0 4 8 19 18 32 24 31 102 168 102 179 0 5 13 35 28 68 16 33
39 94 53 136 13 42 27 76 32 76 4 0 7 -21 7 -47 0 -56 5 -52 59 52 102 196
282 381 451 465 77 38 90 48 87 67 -3 15 4 25 22 34 24 11 24 13 6 17 -11 2
-22 8 -25 12 -3 5 -27 11 -55 14 -42 5 -45 4 -20 -4 17 -6 37 -11 45 -13 8 -1
21 -6 29 -11 11 -7 11 -10 -3 -18 -12 -7 -24 -5 -41 6 -13 9 -36 16 -50 16
-14 0 -25 5 -25 11 0 7 -10 9 -27 5 -79 -19 -104 -23 -108 -16 -6 10 20 32 37
30 28 -4 54 12 67 42 8 17 21 38 30 47 9 9 27 33 41 54 14 20 28 37 31 37 4 0
26 25 49 55 51 66 72 69 117 17z m-807 -192 c0 -5 -5 -10 -11 -10 -5 0 -7 5
-4 10 3 6 8 10 11 10 2 0 4 -4 4 -10z m500 -20 c0 -5 -2 -10 -4 -10 -3 0 -8 5
-11 10 -3 6 -1 10 4 10 6 0 11 -4 11 -10z m-556 -35 c-4 -8 -11 -12 -16 -9 -6
4 -5 10 3 15 19 12 19 11 13 -6z m-53 -54 c-17 -16 -31 -34 -31 -40 0 -6 -4
-11 -8 -11 -14 0 -120 -147 -217 -300 -57 -89 -176 -336 -215 -445 -18 -49
-36 -99 -41 -110 -20 -47 -69 -206 -87 -285 -73 -307 -93 -627 -53 -845 12
-66 11 -70 -25 -79 -14 -4 -74 -26 -132 -48 l-105 -42 -23 30 c-13 16 -24 32
-24 36 0 4 -18 37 -40 73 -22 36 -40 67 -40 69 0 2 -25 45 -55 95 -30 51 -55
95 -55 99 0 4 19 18 41 32 57 35 75 72 60 122 -12 39 -58 78 -91 78 -8 0 -55
-24 -105 -54 -102 -62 -97 -62 -143 24 -48 91 -94 174 -102 185 -5 6 -19 30
-32 55 -14 25 -60 108 -103 185 -114 205 -125 226 -125 244 0 12 5 10 19 -9
16 -20 21 -22 35 -11 14 12 16 11 16 -5 0 -16 3 -14 13 6 7 13 21 27 33 30 18
4 19 8 7 30 l-13 25 0 -25 c-1 -23 -2 -23 -14 -8 -7 10 -16 15 -19 11 -4 -3
-7 -2 -7 3 0 6 5 15 12 22 17 17 41 -1 79 -60 18 -29 46 -69 61 -88 15 -19 28
-39 28 -45 0 -5 24 -47 53 -93 28 -45 74 -118 101 -163 27 -44 53 -82 58 -85
5 -3 38 4 73 16 58 19 71 20 122 10 51 -10 65 -19 114 -70 40 -40 63 -74 79
-116 25 -70 47 -102 59 -88 4 5 14 59 20 119 20 192 50 360 90 510 19 72 71
217 90 253 6 11 18 42 27 68 42 125 250 480 339 580 6 6 21 25 35 43 18 24 26
29 30 18 4 -11 10 -12 30 -4 14 5 33 9 43 8 10 -1 17 4 17 13 0 9 7 16 15 16
8 0 15 -6 15 -14 0 -8 4 -17 9 -20 5 -3 8 2 7 12 -1 21 -35 54 -47 46 -5 -3
-9 0 -9 6 0 8 9 10 26 6 18 -5 24 -3 18 5 -4 7 -2 10 6 7 7 -2 15 -15 17 -28
5 -35 8 -35 50 3 21 20 40 34 42 31 2 -2 -10 -17 -28 -33z m1879 -174 c0 -5
-7 -2 -15 7 -8 8 -15 20 -15 27 0 14 29 -20 30 -34z m75 -88 c22 -33 44 -69
50 -80 5 -10 16 -21 25 -24 12 -5 13 -4 3 6 -15 15 -18 43 -4 35 5 -4 12 0 15
6 5 10 7 10 12 1 3 -7 11 -10 18 -7 8 3 16 -4 19 -16 3 -12 15 -24 27 -27 13
-3 19 -11 16 -19 -3 -8 1 -14 9 -14 8 0 15 6 15 13 0 19 36 -41 56 -92 9 -25
20 -48 23 -51 3 -3 11 -16 17 -30 6 -14 21 -45 33 -68 11 -24 21 -52 21 -62 0
-11 4 -22 10 -25 10 -6 43 -108 80 -250 12 -44 28 -105 37 -135 21 -79 50
-220 68 -330 8 -52 19 -123 25 -156 5 -34 10 -95 10 -135 1 -114 25 -267 52
-339 31 -80 40 -169 29 -279 -5 -47 -7 -90 -4 -97 2 -7 25 -28 49 -47 59 -46
107 -110 170 -228 43 -81 69 -114 153 -197 l102 -100 82 -12 c61 -8 105 -23
176 -57 51 -26 104 -57 117 -70 13 -12 28 -23 33 -23 14 0 141 -120 141 -132
0 -6 13 -25 29 -43 29 -33 52 -94 91 -239 23 -86 25 -206 4 -206 -7 0 -14 -6
-17 -14 -4 -9 -14 -12 -26 -9 -12 3 -21 1 -21 -6 0 -6 -7 -11 -15 -11 -12 0
-15 -20 -17 -112 -1 -62 -2 -126 -3 -143 -1 -16 -2 -117 -3 -224 -1 -107 -4
-192 -7 -190 -2 3 -5 151 -6 330 -1 555 -23 657 -173 796 -42 40 -102 83 -142
103 -65 33 -76 35 -196 40 -69 3 -128 7 -131 10 -2 3 -10 14 -18 26 -57 85
-130 149 -261 228 -27 16 -27 16 -10 46 17 29 16 31 -13 87 -42 81 -129 170
-224 228 -92 56 -90 50 -47 150 46 108 31 267 -34 378 -19 32 -20 42 -11 93
27 145 3 564 -39 694 -4 14 -13 52 -20 85 -7 33 -21 87 -30 120 -10 33 -25 87
-35 120 -27 93 -153 388 -217 508 -32 59 -58 110 -58 112 0 3 -8 15 -18 26
-11 10 -25 32 -33 47 -8 15 -17 29 -20 32 -3 3 -11 15 -18 27 -24 46 14 12 54
-48z m-3630 -659 c-3 -5 -13 -10 -21 -10 -8 0 -14 5 -14 10 0 6 9 10 21 10 11
0 17 -4 14 -10z m2575 -250 c0 -6 26 -10 59 -10 45 0 60 -4 65 -16 5 -13 2
-15 -16 -9 -42 14 -228 18 -243 5 -16 -13 -45 -7 -45 10 0 5 17 10 38 10 20 0
44 5 52 10 20 13 90 13 90 0z m-189 -35 c0 -5 -22 -14 -48 -19 -56 -10 -62
-14 -43 -27 13 -8 13 -10 0 -19 -21 -14 -30 -12 -30 5 0 16 -25 21 -34 6 -8
-12 13 -28 46 -36 16 -4 25 -11 22 -16 -3 -5 2 -9 10 -9 18 0 21 11 6 26 -6 6
-8 19 -4 28 5 14 9 15 16 4 7 -10 11 -10 15 0 2 6 13 12 23 12 12 0 20 -10 24
-35 8 -39 25 -45 44 -15 7 12 17 18 21 15 5 -3 7 4 4 15 -3 11 -1 20 4 20 14
0 53 -39 53 -52 0 -7 -6 -3 -14 8 -14 18 -16 17 -51 -19 -35 -36 -38 -37 -95
-34 -56 4 -88 17 -121 49 -8 7 -27 19 -44 27 l-30 14 35 9 c19 5 44 13 55 17
35 16 59 24 77 26 10 1 21 5 25 9 10 9 34 3 34 -9z m369 -5 c0 -13 -11 -13
-30 0 -12 8 -11 10 8 10 12 0 22 -4 22 -10z m-3079 -30 c5 0 9 -7 9 -15 0 -9
9 -26 21 -38 11 -12 30 -40 41 -62 12 -22 31 -53 43 -70 12 -16 25 -38 29 -48
3 -10 21 -42 40 -70 49 -76 186 -304 186 -311 0 -3 -33 -27 -72 -53 -94 -59
-118 -87 -118 -136 0 -29 7 -46 29 -68 37 -36 85 -39 141 -7 39 23 39 23 54 3
8 -11 21 -31 28 -45 7 -14 27 -47 44 -75 61 -97 144 -242 144 -251 0 -6 -60
-57 -132 -114 -220 -173 -457 -393 -579 -537 l-70 -82 -132 4 c-73 2 -165 5
-204 6 -57 1 -73 5 -73 17 0 10 8 13 28 9 15 -2 36 -1 47 3 16 6 10 9 -25 15
-42 7 -43 8 -20 17 18 7 21 11 11 17 -10 6 -10 10 -2 16 9 5 9 10 1 21 -19 21
-7 40 12 20 11 -11 19 -13 23 -5 8 12 8 12 -20 27 -19 11 -19 11 5 13 14 1 34
3 45 4 11 1 65 2 120 3 l100 2 55 54 c30 29 136 137 235 241 99 103 219 219
267 257 l86 69 -36 64 c-35 64 -51 76 -117 91 -43 9 -136 67 -170 105 -76 87
-56 244 46 350 22 23 39 46 39 52 0 13 -56 126 -82 167 -9 14 -37 62 -61 107
-41 74 -44 85 -31 98 9 8 13 15 9 15 -4 0 1 7 10 16 9 9 14 23 11 31 -3 8 -6
19 -6 24 0 5 -6 9 -12 9 -8 0 -14 15 -14 38 -1 20 0 29 3 20 2 -10 9 -18 14
-18z m2839 15 c0 -8 -4 -15 -10 -15 -5 0 -10 7 -10 15 0 8 5 15 10 15 6 0 10
-7 10 -15z m339 -13 c33 -7 56 -32 29 -32 -7 0 -29 -14 -47 -31 -18 -16 -36
-28 -39 -24 -8 7 39 55 55 55 7 0 13 5 13 10 0 6 -8 10 -19 10 -10 0 -32 7
-47 16 -27 14 -27 15 -4 9 14 -4 40 -10 59 -13z m-239 -2 c0 -5 -4 -10 -10
-10 -5 0 -10 5 -10 10 0 6 5 10 10 10 6 0 10 -4 10 -10z m-196 -6 c12 -5 13
-10 3 -31 -10 -22 -12 -23 -18 -6 -9 21 -11 43 -5 43 2 0 11 -3 20 -6z m136
-8 c0 -8 -5 -16 -12 -18 -7 -3 -9 -12 -5 -22 4 -9 11 -14 17 -11 5 3 10 -1 10
-9 0 -8 -4 -18 -10 -21 -15 -10 -6 -100 14 -130 10 -15 21 -51 25 -79 4 -28
10 -56 14 -62 4 -7 -18 -11 -68 -11 -51 0 -72 4 -67 11 3 6 9 34 13 61 4 28
14 70 24 95 11 31 15 58 10 87 -4 28 -2 43 5 43 6 0 8 10 4 25 -7 28 0 55 16
55 5 0 10 -6 10 -14z m180 -6 c0 -5 -4 -10 -10 -10 -5 0 -10 5 -10 10 0 6 5
10 10 10 6 0 10 -4 10 -10z m-95 -29 c0 -7 11 -20 24 -30 15 -12 20 -21 13
-25 -16 -10 -52 15 -58 41 -3 12 -16 24 -27 26 -12 3 -6 4 13 3 20 -1 35 -8
35 -15z m145 9 c0 -5 -7 -10 -15 -10 -22 0 -19 -40 3 -41 9 0 2 -5 -16 -10
-39 -12 -81 4 -44 15 12 4 22 12 22 18 0 11 29 37 43 38 4 0 7 -4 7 -10z m-84
-14 c19 -20 18 -25 -5 -19 -21 5 -37 33 -20 33 6 0 17 -6 25 -14z m-3046 -50
c0 -2 -7 -7 -16 -10 -8 -3 -12 -2 -9 4 6 10 25 14 25 6z m1693 -280 c-25 -28
-49 -53 -51 -56 -3 -3 3 11 14 30 10 19 28 43 39 54 11 10 19 22 18 27 -2 4 4
6 12 2 12 -4 5 -17 -32 -57z m2373 -373 c39 -64 64 -117 64 -137 0 -12 3 -26
7 -30 14 -13 2 -178 -17 -240 -11 -33 -15 -62 -10 -64 12 -4 -5 -49 -34 -87
-13 -17 -35 -48 -50 -70 -15 -22 -54 -68 -86 -101 -33 -34 -57 -64 -53 -68 3
-3 -1 -6 -11 -6 -9 0 -14 -4 -11 -10 3 -5 0 -10 -8 -10 -7 0 -22 -8 -33 -17
-53 -47 -214 -127 -341 -169 -138 -47 -158 -41 -58 18 112 64 195 128 309 238
152 146 214 237 264 385 34 104 42 152 42 270 0 114 5 132 26 98z m-2449 -278
c110 -33 243 -148 423 -365 208 -250 204 -245 148 -236 -18 3 -54 8 -79 11
-25 3 -69 15 -98 25 -28 11 -60 20 -70 20 -26 0 -16 39 13 50 19 7 19 8 -9 16
-44 11 -85 46 -194 169 -113 127 -168 164 -262 172 -37 4 -75 1 -100 -7 -21
-7 -42 -11 -45 -8 -3 4 2 20 11 37 17 34 11 39 -19 16 -25 -19 -36 -19 -36 0
0 9 -10 20 -22 26 -22 9 -21 9 5 6 15 -3 27 -1 27 4 0 10 100 57 147 68 58 14
104 12 160 -4z m2570 -57 c-3 -8 -6 -5 -6 6 -1 11 2 17 5 13 3 -3 4 -12 1 -19z
m0 -40 c-3 -8 -6 -5 -6 6 -1 11 2 17 5 13 3 -3 4 -12 1 -19z m-3008 -64 c2 -2
-14 -4 -37 -4 -23 0 -42 5 -42 10 0 10 67 4 79 -6z m2970 -71 c-13 -26 -24
-42 -26 -36 -2 6 5 27 17 47 11 20 21 44 21 54 1 15 2 15 6 -1 2 -9 -6 -38
-18 -64z m-2850 51 c10 -9 -56 -3 -69 7 -11 7 -4 8 25 3 22 -4 42 -8 44 -10z
m224 -108 c23 -17 22 -25 -3 -19 -25 7 -49 33 -29 33 8 0 22 -7 32 -14z m-498
-6 c158 -20 358 -105 495 -208 139 -107 370 -343 370 -380 0 -4 -11 5 -25 20
-26 28 -70 45 -145 54 -156 19 -286 60 -239 76 6 2 -16 16 -48 30 -32 15 -122
56 -199 92 -212 97 -252 109 -359 104 -65 -3 -99 -9 -122 -23 -50 -29 -56 -11
-16 45 23 31 13 25 -90 -52 -117 -88 -129 -79 -35 27 97 110 161 168 219 198
57 29 85 32 194 17z m755 -150 c0 -5 7 -10 15 -10 8 0 15 -5 15 -11 0 -5 4 -8
8 -5 5 3 16 -4 25 -15 24 -27 13 -24 -46 16 -29 20 -44 35 -34 35 9 0 17 -4
17 -10z m2636 -81 c50 -34 63 -59 34 -66 -24 -6 -23 -2 -5 -46 16 -39 14 -41
-40 -67 -32 -16 -83 -64 -101 -96 -12 -21 -7 -81 7 -90 5 -3 10 7 11 23 2 46
3 51 11 59 4 4 7 0 7 -9 0 -10 5 -17 11 -17 6 0 9 -6 6 -12 -2 -7 -10 -12 -17
-10 -6 1 -10 -5 -8 -15 2 -10 11 -19 21 -21 12 -2 15 1 11 12 -4 10 -1 16 8
16 26 0 28 -12 7 -42 -20 -28 -25 -29 -88 -27 -36 1 -85 -4 -108 -10 -45 -12
-423 -13 -423 0 0 4 21 23 48 41 88 64 219 182 326 295 73 76 116 113 134 116
49 8 106 -5 148 -34z m-2319 -101 c18 -7 33 -16 33 -20 0 -4 11 -8 25 -8 14 0
25 -4 25 -10 0 -5 8 -11 18 -11 14 -1 14 -2 1 -6 -8 -2 -46 12 -85 31 -70 36
-77 46 -17 24z m-1252 -18 c-11 -5 -27 -9 -35 -9 -13 -1 -13 0 0 9 8 5 24 9
35 9 l20 0 -20 -9z m260 -5 c22 -4 46 -12 52 -17 7 -6 19 -8 26 -5 8 3 20 1
28 -5 15 -10 11 -9 -126 12 -38 6 -104 15 -145 20 -75 8 -75 8 25 5 55 -2 118
-6 140 -10z m1248 -49 c21 -16 22 -26 1 -26 -8 0 -13 4 -9 9 3 6 -3 14 -12 20
-10 6 -13 10 -8 10 6 0 18 -6 28 -13z m-1060 -3 c-7 -2 -19 -2 -25 0 -7 3 -2
5 12 5 14 0 19 -2 13 -5z m124 -39 c-3 -3 -12 -4 -19 -1 -8 3 -5 6 6 6 11 1
17 -2 13 -5z m3042 -75 c-17 -21 -35 -39 -40 -39 -12 0 -11 9 4 25 6 8 21 26
32 39 10 13 23 22 27 20 5 -3 -5 -23 -23 -45z m-2962 35 c-3 -3 -12 -4 -19 -1
-8 3 -5 6 6 6 11 1 17 -2 13 -5z m78 -43 c-6 -5 -65 23 -65 31 0 4 15 0 34
-10 19 -9 32 -19 31 -21z m2825 19 c0 -5 -4 -10 -10 -10 -5 0 -10 5 -10 10 0
6 5 10 10 10 6 0 10 -4 10 -10z m310 -65 c14 -15 38 -36 54 -46 l29 -18 -26
-6 c-15 -4 -34 -5 -42 -2 -8 4 -17 2 -20 -3 -7 -11 -155 -14 -155 -4 0 9 69
95 88 111 18 15 37 6 72 -32z m-2920 -35 c0 -5 24 -11 53 -12 l52 -2 -45 -3
c-29 -3 -57 2 -75 11 -27 14 -28 16 -7 16 12 0 22 -4 22 -10z m137 -16 c-3 -3
-12 -4 -19 -1 -8 3 -5 6 6 6 11 1 17 -2 13 -5z m-2500 -321 c-1 -54 -3 -12 -3
92 0 105 2 149 3 98 2 -51 2 -136 0 -190z m1733 87 c0 -11 5 -20 10 -20 6 0
10 -9 10 -20 0 -11 3 -20 8 -20 8 0 32 -49 32 -67 0 -7 5 -13 10 -13 6 0 10
-9 10 -20 0 -11 5 -20 10 -20 6 0 10 -9 10 -20 0 -11 5 -20 10 -20 6 0 10 -9
10 -20 0 -11 5 -20 10 -20 6 0 10 -9 10 -20 0 -11 5 -20 10 -20 6 0 10 -9 10
-20 0 -11 5 -20 10 -20 7 0 10 -167 10 -480 l0 -480 -100 0 -100 0 0 160 0
160 -210 0 -210 0 0 -219 c0 -121 -4 -221 -8 -223 -4 -1 -46 -80 -92 -175 -47
-95 -88 -172 -92 -173 -5 0 -8 295 -8 655 l0 655 100 0 100 0 0 -160 0 -160
210 0 210 0 0 400 c0 260 4 400 10 400 6 0 10 -9 10 -20z m4100 -209 c0 -115
-3 -211 -7 -213 -11 -4 -53 -87 -53 -104 0 -8 -4 -14 -10 -14 -5 0 -10 -9 -10
-19 0 -11 -3 -21 -7 -23 -11 -4 -53 -87 -53 -103 0 -7 -3 -15 -7 -17 -11 -4
-53 -87 -53 -104 0 -8 -4 -14 -10 -14 -5 0 -10 -9 -10 -20 0 -11 -3 -20 -7
-20 -12 0 -33 -51 -33 -77 0 -13 5 -23 10 -23 6 0 10 -9 10 -20 0 -23 7 -25
23 -7 17 17 57 96 57 112 0 7 3 15 8 17 10 4 52 87 52 104 0 8 5 14 10 14 6 0
10 9 10 19 0 11 3 21 8 23 10 4 52 87 52 103 0 7 3 15 8 17 10 4 52 87 52 104
0 11 22 14 110 14 67 0 110 -4 110 -10 0 -5 -4 -10 -10 -10 -5 0 -10 -6 -10
-13 0 -18 -24 -67 -32 -67 -5 0 -8 -9 -8 -20 0 -11 -4 -20 -10 -20 -5 0 -10
-9 -10 -20 0 -11 -4 -20 -10 -20 -5 0 -10 -6 -10 -13 0 -18 -24 -67 -32 -67
-5 0 -8 -9 -8 -20 0 -11 -4 -20 -10 -20 -5 0 -10 -6 -10 -14 0 -17 -42 -100
-52 -104 -5 -2 -8 -12 -8 -23 0 -10 -4 -19 -10 -19 -5 0 -10 -6 -10 -13 0 -18
-24 -67 -32 -67 -5 0 -8 -9 -8 -20 0 -11 -4 -20 -10 -20 -5 0 -10 -6 -10 -13
0 -18 -24 -67 -32 -67 -5 0 -8 -9 -8 -20 0 -11 -4 -20 -10 -20 -5 0 -10 -6
-10 -14 0 -17 -42 -100 -52 -104 -5 -2 -8 -12 -8 -23 0 -10 -4 -19 -10 -19 -5
0 -10 -9 -10 -20 0 -11 -4 -20 -10 -20 -5 0 -10 -7 -10 -16 0 -15 -23 -44 -34
-44 -3 0 -6 9 -6 20 0 11 -4 20 -10 20 -5 0 -10 9 -10 20 0 11 -4 20 -10 20
-5 0 -10 9 -10 20 0 11 -4 20 -10 20 -5 0 -10 9 -10 20 0 11 -4 20 -10 20 -5
0 -10 9 -10 20 0 11 -4 20 -10 20 -5 0 -10 9 -10 20 0 11 -4 20 -10 20 -5 0
-10 9 -10 20 0 11 -3 20 -7 20 -9 0 -33 -48 -33 -66 0 -7 -3 -14 -7 -16 -11
-4 -53 -87 -53 -104 0 -8 -4 -14 -10 -14 -5 0 -10 -9 -10 -20 0 -11 -4 -20 -9
-20 -5 0 -11 -9 -14 -21 -3 -12 -10 -18 -15 -15 -6 3 -40 64 -76 136 -86 169
-80 159 -104 205 -120 234 -302 601 -302 607 0 4 47 8 105 8 l105 0 17 -40
c10 -22 21 -40 25 -40 5 0 8 -6 8 -12 0 -17 210 -437 222 -444 5 -3 12 3 15
15 3 12 9 21 14 21 5 0 9 14 9 30 0 17 -4 30 -10 30 -5 0 -10 9 -10 20 0 11
-4 20 -10 20 -5 0 -10 9 -10 20 0 11 -4 20 -10 20 -5 0 -10 9 -10 20 0 11 -4
20 -10 20 -5 0 -10 9 -10 20 0 11 -3 20 -7 20 -9 0 -33 49 -33 67 0 7 -4 13
-10 13 -5 0 -10 9 -10 20 0 11 -3 20 -7 20 -9 0 -33 49 -33 67 0 7 -4 13 -10
13 -5 0 -10 9 -10 20 0 11 -4 20 -10 20 -5 0 -10 9 -10 20 0 19 7 20 96 20 98
0 124 -9 124 -44 0 -9 5 -16 10 -16 6 0 10 -9 10 -20 0 -11 5 -20 10 -20 6 0
10 -9 10 -20 0 -11 5 -20 10 -20 6 0 10 -9 10 -20 0 -11 5 -20 10 -20 6 0 10
-9 10 -20 0 -11 5 -20 10 -20 6 0 10 -7 10 -15 0 -8 5 -15 10 -15 6 0 10 7 10
15 0 8 5 15 10 15 6 0 10 6 10 13 0 15 182 381 192 385 5 2 8 10 8 17 0 16 42
99 53 103 4 2 7 10 7 17 0 16 42 99 53 103 4 2 7 12 7 23 0 10 5 19 10 19 6 0
10 -76 10 -209z m-5833 -128 c-3 -10 -5 -4 -5 12 0 17 2 24 5 18 2 -7 2 -21 0
-30z m2453 -83 c0 -11 5 -20 10 -20 6 0 10 -9 10 -20 0 -11 5 -20 10 -20 6 0
10 -9 10 -20 0 -11 5 -20 10 -20 6 0 10 -9 10 -20 0 -11 5 -20 10 -20 6 0 10
-9 10 -20 0 -11 5 -20 10 -20 6 0 10 -9 10 -20 0 -11 3 -20 8 -20 8 0 32 -49
32 -67 0 -7 5 -13 10 -13 6 0 10 -9 10 -20 0 -11 5 -20 10 -20 6 0 10 -9 10
-20 0 -11 5 -20 10 -20 6 0 10 -9 10 -20 0 -11 5 -20 10 -20 6 0 10 -9 10 -20
0 -11 5 -20 10 -20 6 0 10 -9 10 -20 0 -11 3 -20 8 -20 8 0 32 -49 32 -67 0
-7 5 -13 10 -13 6 0 10 -9 10 -20 0 -11 3 -20 8 -20 8 0 32 -49 32 -67 0 -7 5
-13 10 -13 6 0 10 -9 10 -20 0 -11 5 -20 10 -20 6 0 10 -9 10 -20 0 -11 3 -20
8 -20 8 0 32 -49 32 -67 0 -7 5 -13 10 -13 6 0 10 -9 10 -20 0 -11 3 -20 8
-20 4 0 13 -12 20 -27 13 -30 18 -433 5 -433 -9 0 -33 48 -33 66 0 7 -3 14 -7
16 -11 4 -73 128 -73 144 0 7 -3 14 -8 16 -4 2 -86 161 -182 353 -95 193 -175
351 -175 353 -5 8 -35 -12 -35 -23 0 -16 -42 -99 -52 -103 -5 -2 -8 -12 -8
-23 0 -10 -4 -19 -10 -19 -5 0 -10 -6 -10 -14 0 -17 -42 -100 -52 -104 -5 -2
-8 -10 -8 -17 0 -16 -42 -99 -52 -103 -5 -2 -8 -11 -8 -21 0 -34 -22 -41 -122
-41 -91 0 -98 1 -98 20 0 11 5 20 10 20 6 0 10 9 10 20 0 11 5 20 10 20 6 0
10 6 10 13 0 18 24 67 33 67 4 0 7 9 7 20 0 11 5 20 10 20 6 0 10 6 10 14 0
17 42 100 53 104 4 2 7 12 7 23 0 10 5 19 10 19 6 0 10 6 10 13 0 18 24 67 33
67 4 0 7 9 7 20 0 11 5 20 10 20 6 0 10 6 10 14 0 17 42 100 53 104 4 2 7 10
7 17 0 16 42 99 53 103 4 2 7 10 7 17 0 16 42 99 53 103 4 2 7 10 7 18 0 16
20 43 33 44 4 0 7 -9 7 -20z m3870 16 c0 -2 -7 -9 -15 -16 -12 -10 -15 -10
-15 4 0 9 7 16 15 16 8 0 15 -2 15 -4z m-6323 -73 c-3 -10 -5 -2 -5 17 0 19 2
27 5 18 2 -10 2 -26 0 -35z m963 10 c-1 -5 -24 -19 -53 -32 -29 -13 -106 -51
-172 -85 l-120 -60 -140 -6 -140 -5 -3 -62 -3 -63 331 0 330 0 0 -260 0 -260
-420 0 c-231 0 -420 3 -420 8 0 4 53 33 118 65 64 31 131 65 147 74 17 9 39
21 50 27 11 6 88 12 173 14 l152 4 0 64 0 64 -320 0 -320 0 0 260 0 260 405 0
c223 0 405 -3 405 -7z m2870 -343 c0 -227 -4 -350 -10 -350 -5 0 -10 -7 -10
-15 0 -17 -73 -92 -108 -112 -16 -10 -110 -13 -372 -13 l-350 0 2 323 3 322
93 3 92 3 0 -226 0 -225 219 0 c173 0 221 3 230 14 8 9 11 77 9 222 l-3 209
-142 1 -142 2 -180 88 c-99 49 -181 92 -181 97 0 4 191 7 425 7 l425 0 0 -350z
m960 -70 l0 -420 -430 0 -430 0 0 420 0 420 430 0 430 0 0 -420z m-3121 -1227
c-1 -115 1 -217 6 -228 5 -15 0 -12 -22 10 -25 25 -28 34 -20 53 8 17 7 26 -3
35 -10 10 -12 9 -6 -3 4 -8 0 -6 -8 4 -9 11 -16 23 -16 28 0 4 -7 5 -15 2 -9
-4 -15 0 -15 7 -1 8 -7 1 -15 -16 -13 -28 -13 -26 -14 51 -1 86 -17 133 -48
146 -10 3 -106 7 -213 8 -129 1 -185 5 -166 10 16 5 33 7 38 4 5 -3 16 -3 24
0 12 5 13 8 2 20 -8 9 -17 11 -24 5 -11 -9 -29 15 -26 33 3 13 -55 18 -198 17
-80 -1 -188 0 -240 2 -105 4 293 13 714 17 l268 2 -3 -207z m3978 193 c4 -3 2
-7 -3 -8 -32 -5 -77 -8 -126 -8 -46 1 -58 -3 -58 -15 0 -8 -7 -15 -15 -15 -8
0 -15 -4 -15 -9 0 -5 -13 -3 -30 5 -16 9 -30 20 -30 25 0 11 -121 10 -165 -1
-16 -4 -22 -8 -12 -9 11 -1 15 -6 11 -12 -4 -7 -21 -9 -41 -6 -24 4 -40 1 -54
-11 -19 -17 -19 -17 23 -23 37 -5 -310 -14 -369 -10 -30 3 -36 -12 -40 -103
-2 -45 -8 -97 -14 -116 -5 -19 -10 -62 -10 -95 -1 -33 -4 -49 -6 -35 -8 50
-11 53 -35 36 -12 -9 -33 -16 -46 -16 -16 0 -22 -5 -20 -16 2 -10 -4 -19 -12
-21 -13 -4 -13 -3 0 6 12 9 9 11 -14 11 l-28 0 22 18 c22 17 22 22 21 231 l-2
213 531 -5 c292 -3 534 -8 537 -11z m-5064 -3 c-7 -2 -19 -2 -25 0 -7 3 -2 5
12 5 14 0 19 -2 13 -5z m4887 -83 c0 -5 -12 -10 -27 -9 l-28 1 25 8 c14 4 26
8 28 9 1 1 2 -3 2 -9z m47 -6 c-3 -3 -12 -4 -19 -1 -8 3 -5 6 6 6 11 1 17 -2
13 -5z m-3283 -366 c51 -51 192 -203 222 -240 l22 -26 -28 2 c-23 1 -27 4 -24
23 3 14 -1 23 -8 23 -6 0 -20 8 -30 17 -17 15 -21 15 -30 3 -8 -12 -9 -12 -4
2 8 26 -10 31 -49 13 l-34 -17 -75 78 -75 79 -203 6 c-112 3 -189 6 -171 7 28
2 51 17 41 27 -2 2 -22 5 -45 6 -25 2 -45 9 -48 17 -3 9 1 12 13 8 9 -2 37 -1
62 3 25 4 129 8 233 10 l187 2 44 -43z m2293 36 c-3 -4 -1 -16 5 -27 10 -19 8
-20 -26 -14 -19 3 -38 2 -41 -3 -3 -5 12 -13 34 -16 23 -4 38 -10 36 -14 -3
-5 1 -11 7 -13 7 -3 -88 -6 -212 -6 l-225 -1 -48 -45 c-27 -25 -53 -45 -58
-45 -6 0 -8 -4 -5 -8 4 -7 -77 -92 -88 -92 -14 0 3 36 19 40 13 4 20 16 22 38
l3 33 -21 -20 c-12 -11 -18 -24 -15 -30 6 -9 -24 -24 -40 -19 -22 5 -54 -15
-66 -42 -7 -17 -17 -30 -22 -30 -5 0 -18 -7 -28 -17 -10 -9 -21 -14 -23 -11
-6 5 49 70 130 153 22 22 73 75 113 118 l73 77 241 0 c133 0 238 -3 235 -6z
m-738 -11 c0 -9 -134 -123 -143 -123 -3 0 -15 -8 -25 -17 -43 -39 -50 -43 -57
-32 -6 11 28 49 45 49 6 0 14 6 18 13 4 7 24 24 43 37 19 13 37 27 40 30 3 3
17 11 33 19 15 8 27 18 27 23 0 4 5 8 10 8 6 0 10 -3 9 -7z m-1224 -63 c41
-27 76 -50 79 -50 2 0 92 -58 200 -130 108 -71 200 -130 204 -130 4 0 20 -11
37 -24 29 -23 29 -25 26 -107 -1 -46 -4 -86 -7 -88 -2 -2 -29 21 -61 51 -32
30 -82 77 -112 104 -30 27 -71 65 -90 84 -20 19 -79 73 -131 120 -52 47 -109
99 -127 116 -17 18 -48 44 -67 59 -32 24 -46 45 -31 45 3 0 39 -22 80 -50z
m-239 -195 c18 -16 23 -25 14 -25 -8 0 -23 12 -33 25 -23 32 -18 32 19 0z
m201 -79 c18 -18 30 -36 27 -39 -6 -5 -74 57 -74 68 0 13 17 2 47 -29z m1142
-63 c-13 -16 -25 -30 -26 -32 -2 -2 -3 0 -3 5 0 12 37 54 47 54 4 0 -4 -12
-18 -27z m-1044 -43 c3 -5 1 -10 -4 -10 -6 0 -11 5 -11 10 0 6 2 10 4 10 3 0
8 -4 11 -10z"/>
<path d="M4435 7080 c-3 -5 -17 -10 -30 -10 -13 0 -26 -4 -30 -9 -3 -6 4 -8
17 -6 63 12 78 17 72 26 -7 12 -21 12 -29 -1z"/>
<path d="M5560 6611 c0 -6 4 -13 10 -16 6 -3 7 1 4 9 -7 18 -14 21 -14 7z"/>
<path d="M6920 3710 c0 -5 5 -10 10 -10 6 0 10 5 10 10 0 6 -4 10 -10 10 -5 0
-10 -4 -10 -10z"/>
<path d="M7020 3630 c0 -5 5 -10 10 -10 6 0 10 5 10 10 0 6 -4 10 -10 10 -5 0
-10 -4 -10 -10z"/>
<path d="M7080 3610 c0 -5 5 -10 10 -10 6 0 10 5 10 10 0 6 -4 10 -10 10 -5 0
-10 -4 -10 -10z"/>
<path d="M7110 3550 c0 -5 5 -10 10 -10 6 0 10 5 10 10 0 6 -4 10 -10 10 -5 0
-10 -4 -10 -10z"/>
<path d="M7120 3490 c0 -5 5 -10 10 -10 6 0 10 5 10 10 0 6 -4 10 -10 10 -5 0
-10 -4 -10 -10z"/>
<path d="M4105 5751 c-7 -12 12 -24 25 -16 11 7 4 25 -10 25 -5 0 -11 -4 -15
-9z"/>
<path d="M1461 5678 c-1 -10 6 -18 14 -18 8 0 15 5 15 11 0 5 -4 8 -9 5 -5 -4
-12 0 -14 6 -3 8 -6 6 -6 -4z"/>
<path d="M1430 5634 c0 -8 5 -12 10 -9 6 4 8 11 5 16 -9 14 -15 11 -15 -7z"/>
<path d="M4288 5545 c2 -14 6 -25 8 -25 2 0 4 11 4 25 0 14 -4 25 -9 25 -4 0
-6 -11 -3 -25z"/>
<path d="M5660 3865 c-17 -21 -5 -31 15 -12 8 9 15 18 15 21 0 11 -18 6 -30
-9z"/>
<path d="M4987 2944 c-4 -4 -7 -106 -7 -226 l0 -218 220 0 c121 0 223 0 228 0
4 0 7 100 7 223 l0 222 -221 3 c-121 1 -223 -1 -227 -4z"/>
<path d="M2058 1613 c7 -3 16 -2 19 1 4 3 -2 6 -13 5 -11 0 -14 -3 -6 -6z"/>
<path d="M5896 1623 c5 -5 12 -12 16 -18 4 -6 8 -2 8 8 0 9 -7 17 -17 17 -9 0
-12 -3 -7 -7z"/>
<path d="M5510 1360 c0 -5 5 -10 10 -10 6 0 10 5 10 10 0 6 -4 10 -10 10 -5 0
-10 -4 -10 -10z"/>
<path d="M2660 1220 c0 -5 5 -10 10 -10 6 0 10 5 10 10 0 6 -4 10 -10 10 -5 0
-10 -4 -10 -10z"/>
<path d="M5264 1203 c3 -8 6 -18 6 -21 0 -4 5 0 10 8 7 12 12 12 22 2 6 -6 21
-12 32 -12 28 0 11 13 -35 26 -35 11 -40 10 -35 -3z"/>
</g>
</svg>
